# xmcd
#
# Track frame offsets: 
#        150
#        12802
#        29885
#        41387
#        56529
#        72343
#        81766
#        99593
#        118356
#        129791
#        145559
#        164529
#        179482
#        197317
#        214440
#        231450
#        255655
#        288625
#        308345
#        321025
#        338380
#
# Disc length: 4789 seconds
#
# Revision: 0
# Processed by: cddbd v1.5.2PL0 Copyright (c) Steve Scherf et al.
# Submitted via: ExactAudioCopy v1.1
#
DISCID=2b12b315
DTITLE=Albert King - Akella Presents - Greatest Bluesmen - vol. 16  CD
DTITLE=1
DYEAR=2017
DGENRE=Blues
TTITLE0=Born Under a Bad Sign
TTITLE1=As the Years Go Passing By
TTITLE2=Kansas City
TTITLE3=Laundromat Blues
TTITLE4=I Almost Lost My Mind
TTITLE5=Instrumental
TTITLE6=Drowning On Dry Land
TTITLE7=Sky Is Crying
TTITLE8=All Shook Up
TTITLE9=Don't Be Cruel
TTITLE10=That's All Right
TTITLE11=Blue Suede Shoes
TTITLE12=She Cought The Katy
TTITLE13=Lovejoy
TTITLE14=Corina Corina
TTITLE15=Like A Road Leading Home
TTITLE16=Breaking Up Somebody's Home
TTITLE17=Angel Of Mercy
TTITLE18=Little Brother (Make A Way)
TTITLE19=My Babe - Albert King
TTITLE20=Answer To The Laundromat Blues
EXTD=
EXTT0=
EXTT1=
EXTT2=
EXTT3=
EXTT4=
EXTT5=
EXTT6=
EXTT7=
EXTT8=
EXTT9=
EXTT10=
EXTT11=
EXTT12=
EXTT13=
EXTT14=
EXTT15=
EXTT16=
EXTT17=
EXTT18=
EXTT19=
EXTT20=
PLAYORDER=
